<svg xmlns="http://www.w3.org/2000/svg" xmlns:xlink="http://www.w3.org/1999/xlink" viewBox="0 0 430 430" width="430" height="430" preserveAspectRatio="xMidYMid meet" style="width: 100%; height: 100%; transform: translate3d(0px, 0px, 0px); content-visibility: visible;"><defs><clipPath id="__lottie_element_51"><rect width="430" height="430" x="0" y="0"/></clipPath><clipPath id="__lottie_element_53"><path d="M0,0 L430,0 L430,430 L0,430z"/></clipPath><clipPath id="__lottie_element_61"><path d="M0,0 L309,0 L309,253 L0,253z"/></clipPath><g id="__lottie_element_70"><g transform="matrix(1,0,0,1,154.5,127)" opacity="1" style="display: none;"><path fill="rgb(255,199,56)" fill-opacity="1" d=" M130,-98.3936996459961 C110.16010284423828,-100.59996795654297 88.4503173828125,-95.44035339355469 69.25843048095703,-85.07957458496094 C9.975045204162598,-53.37214279174805 -44.73944854736328,-75.87965393066406 -60.98035430908203,-84.89836120605469 C-97.60757446289062,-105.35796356201172 -129.9970245361328,-85.0019760131836 -130,-85 C-130,-85 -130,85 -130,85 C-129.99505615234375,84.99705505371094 -102.50540924072266,64.81074523925781 -60.68929672241211,85.14010620117188 C-43.868125915527344,93.2481689453125 3.895778179168701,117.46305084228516 69.48379516601562,84.76201629638672 C87.42101287841797,75.56298828125 109.69164276123047,67.9013671875 130,69.67227935791016 C130,69.64228057861328 129.93800354003906,69.64228057861328 130,69.67327880859375 C130,69.67327880859375 80,0.5388308167457581 80,0.5388308167457581 C80,0.5388308167457581 130,-98.38670349121094 130,-98.38670349121094 C130,-98.38670349121094 130.031005859375,-98.32369995117188 130,-98.3936996459961z"/><g opacity="1" transform="matrix(1,0,0,1,0,0)"><path stroke-linecap="butt" stroke-linejoin="round" fill-opacity="0" class="secondary" stroke="rgb(255,199,56)" stroke-opacity="1" stroke-width="7" d=" M130,-98.3936996459961 C110.16010284423828,-100.59996795654297 88.4503173828125,-95.44035339355469 69.25843048095703,-85.07957458496094 C9.975045204162598,-53.37214279174805 -44.73944854736328,-75.87965393066406 -60.98035430908203,-84.89836120605469 C-97.60757446289062,-105.35796356201172 -129.9970245361328,-85.0019760131836 -130,-85 C-130,-85 -130,85 -130,85 C-129.99505615234375,84.99705505371094 -102.50540924072266,64.81074523925781 -60.68929672241211,85.14010620117188 C-43.868125915527344,93.2481689453125 3.895778179168701,117.46305084228516 69.48379516601562,84.76201629638672 C87.42101287841797,75.56298828125 109.69164276123047,67.9013671875 130,69.67227935791016 C130,69.64228057861328 129.93800354003906,69.64228057861328 130,69.67327880859375 C130,69.67327880859375 80,0.5388308167457581 80,0.5388308167457581 C80,0.5388308167457581 130,-98.38670349121094 130,-98.38670349121094 C130,-98.38670349121094 130.031005859375,-98.32369995117188 130,-98.3936996459961z"/></g></g></g><mask id="__lottie_element_70_1" mask-type="alpha"><use xmlns:ns1="http://www.w3.org/1999/xlink" ns1:href="#__lottie_element_70"/></mask><g id="__lottie_element_132"><g transform="matrix(1,0,0,1,154.5,127)" opacity="1" style="display: block;"><path fill="rgb(255,199,56)" fill-opacity="1" d=" M-0.07038310915231705,-84.9945297241211 C-43.26620864868164,-106.92543029785156 -86.43401336669922,-106.98086547851562 -129.5970001220703,-85.2040023803711 C-129.7310028076172,-85.13700866699219 -129.99899291992188,-85.0009994506836 -129.99899291992188,-85.0009994506836 C-129.99899291992188,-85.0009994506836 -130,-85 -130,-85 C-130,-85 -130,85 -130,85 C-129.99899291992188,85 -129.99899291992188,84.9990005493164 -129.9980010986328,84.9990005493164 C-129.78399658203125,84.88999938964844 -129.5699920654297,84.78301239013672 -129.3560028076172,84.67500305175781 C-86.25444030761719,63.006805419921875 -43.1618766784668,63.131370544433594 -0.07038310915231705,85.0054702758789 C41.91590118408203,106.31536102294922 83.88229370117188,106.97174835205078 125.8589096069336,86.99588012695312 C127.23599243164062,86.3404769897461 128.6053924560547,85.66602325439453 130,84.97949981689453 C130,84.97949981689453 80,9.987016677856445 80,9.987016677856445 C80,9.987016677856445 130,-85.01810455322266 130,-85.01810455322266 C128.6448974609375,-84.3515853881836 127.30381774902344,-83.69325256347656 125.96931457519531,-83.05645751953125 C83.9563980102539,-63.02518081665039 41.94242858886719,-63.66410827636719 -0.07038310915231705,-84.9945297241211z"/><g opacity="1" transform="matrix(1,0,0,1,0,0)"><path stroke-linecap="butt" stroke-linejoin="round" fill-opacity="0" class="secondary" stroke="rgb(255,199,56)" stroke-opacity="1" stroke-width="7" d=" M-0.07038310915231705,-84.9945297241211 C-43.26620864868164,-106.92543029785156 -86.43401336669922,-106.98086547851562 -129.5970001220703,-85.2040023803711 C-129.7310028076172,-85.13700866699219 -129.99899291992188,-85.0009994506836 -129.99899291992188,-85.0009994506836 C-129.99899291992188,-85.0009994506836 -130,-85 -130,-85 C-130,-85 -130,85 -130,85 C-129.99899291992188,85 -129.99899291992188,84.9990005493164 -129.9980010986328,84.9990005493164 C-129.78399658203125,84.88999938964844 -129.5699920654297,84.78301239013672 -129.3560028076172,84.67500305175781 C-86.25444030761719,63.006805419921875 -43.1618766784668,63.131370544433594 -0.07038310915231705,85.0054702758789 C41.91590118408203,106.31536102294922 83.88229370117188,106.97174835205078 125.8589096069336,86.99588012695312 C127.23599243164062,86.3404769897461 128.6053924560547,85.66602325439453 130,84.97949981689453 C130,84.97949981689453 80,9.987016677856445 80,9.987016677856445 C80,9.987016677856445 130,-85.01810455322266 130,-85.01810455322266 C128.6448974609375,-84.3515853881836 127.30381774902344,-83.69325256347656 125.96931457519531,-83.05645751953125 C83.9563980102539,-63.02518081665039 41.94242858886719,-63.66410827636719 -0.07038310915231705,-84.9945297241211z"/></g></g></g><mask id="__lottie_element_132_1" mask-type="alpha"><use xmlns:ns2="http://www.w3.org/1999/xlink" ns2:href="#__lottie_element_132"/></mask><clipPath id="__lottie_element_136"><path d="M0,0 L309,0 L309,253 L0,253z"/></clipPath><g id="__lottie_element_145"><g transform="matrix(1,0,0,1,154.5,127)" opacity="1" style="display: none;"><path fill="rgb(255,199,56)" fill-opacity="1" d=" M130,-97.9548568725586 C111.29753875732422,-99.86859130859375 90.76158905029297,-94.85824584960938 72.63646697998047,-85.0738296508789 C13.811859130859375,-53.62937927246094 -40.584999084472656,-75.44165802001953 -57.595787048339844,-84.89340209960938 C-96.01904296875,-106.35630798339844 -129.9968719482422,-85.00204467773438 -130,-85 C-130,-85 -130,85 -130,85 C-129.99484252929688,84.99695587158203 -101.15715789794922,63.82070541381836 -57.29048156738281,85.14698791503906 C-39.671363830566406,93.6468734741211 7.570232391357422,117.2705307006836 72.8496322631836,84.7728500366211 C89.78779602050781,76.08580780029297 110.82052612304688,68.6952896118164 130,70.13294219970703 C130,70.10294342041016 129.93800354003906,70.10294342041016 130,70.13394165039062 C130,70.13394165039062 80,1.1465435028076172 80,1.1465435028076172 C80,1.1465435028076172 130,-97.9478530883789 130,-97.9478530883789 C130,-97.9478530883789 130.031005859375,-97.88485717773438 130,-97.9548568725586z"/><g opacity="1" transform="matrix(1,0,0,1,0,0)"><path stroke-linecap="butt" stroke-linejoin="round" fill-opacity="0" class="secondary" stroke="rgb(255,199,56)" stroke-opacity="1" stroke-width="7" d=" M130,-97.9548568725586 C111.29753875732422,-99.86859130859375 90.76158905029297,-94.85824584960938 72.63646697998047,-85.0738296508789 C13.811859130859375,-53.62937927246094 -40.584999084472656,-75.44165802001953 -57.595787048339844,-84.89340209960938 C-96.01904296875,-106.35630798339844 -129.9968719482422,-85.00204467773438 -130,-85 C-130,-85 -130,85 -130,85 C-129.99484252929688,84.99695587158203 -101.15715789794922,63.82070541381836 -57.29048156738281,85.14698791503906 C-39.671363830566406,93.6468734741211 7.570232391357422,117.2705307006836 72.8496322631836,84.7728500366211 C89.78779602050781,76.08580780029297 110.82052612304688,68.6952896118164 130,70.13294219970703 C130,70.10294342041016 129.93800354003906,70.10294342041016 130,70.13394165039062 C130,70.13394165039062 80,1.1465435028076172 80,1.1465435028076172 C80,1.1465435028076172 130,-97.9478530883789 130,-97.9478530883789 C130,-97.9478530883789 130.031005859375,-97.88485717773438 130,-97.9548568725586z"/></g></g></g><mask id="__lottie_element_145_1" mask-type="alpha"><use xmlns:ns3="http://www.w3.org/1999/xlink" ns3:href="#__lottie_element_145"/></mask><g id="__lottie_element_163"><g transform="matrix(1,0,0,1,154.5,127)" opacity="1" style="display: block;"><path fill="rgb(255,199,56)" fill-opacity="1" d=" M0,-85 C-43.19900131225586,-106.93199920654297 -86.39800262451172,-107 -129.5970001220703,-85.2040023803711 C-129.7310028076172,-85.13700103759766 -129.99899291992188,-85.0009994506836 -129.99899291992188,-85.0009994506836 C-129.99899291992188,-85.0009994506836 -130,-85 -130,-85 C-130,-85 -130,85 -130,85 C-129.99899291992188,85 -129.99899291992188,84.9990005493164 -129.9980010986328,84.9990005493164 C-129.78399658203125,84.88999938964844 -129.57000732421875,84.78299713134766 -129.3560028076172,84.67500305175781 C-86.23699951171875,63.000999450683594 -43.11899948120117,63.10900115966797 0,85 C41.97600173950195,106.31099700927734 83.9530029296875,106.97799682617188 125.92900085449219,87.00199890136719 C127.28600311279297,86.35600280761719 128.64300537109375,85.68900299072266 130,85 C130,85 80,10 80,10 C80,10 130,-85 130,-85 C128.67999267578125,-84.33000183105469 127.36000061035156,-83.68000030517578 126.03900146484375,-83.05000305175781 C84.0260009765625,-63.02000045776367 42.01300048828125,-63.66999816894531 0,-85z"/><g opacity="1" transform="matrix(1,0,0,1,0,0)"><path stroke-linecap="butt" stroke-linejoin="round" fill-opacity="0" class="secondary" stroke="rgb(255,199,56)" stroke-opacity="1" stroke-width="7" d=" M0,-85 C-43.19900131225586,-106.93199920654297 -86.39800262451172,-107 -129.5970001220703,-85.2040023803711 C-129.7310028076172,-85.13700103759766 -129.99899291992188,-85.0009994506836 -129.99899291992188,-85.0009994506836 C-129.99899291992188,-85.0009994506836 -130,-85 -130,-85 C-130,-85 -130,85 -130,85 C-129.99899291992188,85 -129.99899291992188,84.9990005493164 -129.9980010986328,84.9990005493164 C-129.78399658203125,84.88999938964844 -129.57000732421875,84.78299713134766 -129.3560028076172,84.67500305175781 C-86.23699951171875,63.000999450683594 -43.11899948120117,63.10900115966797 0,85 C41.97600173950195,106.31099700927734 83.9530029296875,106.97799682617188 125.92900085449219,87.00199890136719 C127.28600311279297,86.35600280761719 128.64300537109375,85.68900299072266 130,85 C130,85 80,10 80,10 C80,10 130,-85 130,-85 C128.67999267578125,-84.33000183105469 127.36000061035156,-83.68000030517578 126.03900146484375,-83.05000305175781 C84.0260009765625,-63.02000045776367 42.01300048828125,-63.66999816894531 0,-85z"/></g></g></g><mask id="__lottie_element_163_1" mask-type="alpha"><use xmlns:ns4="http://www.w3.org/1999/xlink" ns4:href="#__lottie_element_163"/></mask></defs><g clip-path="url(#__lottie_element_51)"><g clip-path="url(#__lottie_element_53)" transform="matrix(1,0,0,1,0,0)" opacity="1" style="display: block;"><g transform="matrix(1,0,0,1,100,300)" opacity="1" style="display: block;"><g opacity="1" transform="matrix(1,0,0,1,0,0)"><path stroke-linecap="round" stroke-linejoin="miter" fill-opacity="0" stroke-miterlimit="4" class="tertiary" stroke="rgb(58,51,71)" stroke-opacity="1" stroke-width="7" d=" M0,100 C0,100 0,-73.5 0,-73.5"/></g></g><g clip-path="url(#__lottie_element_61)" transform="matrix(1,0,0,1,75.41299438476562,12.934005737304688)" opacity="1" style="display: none;"><g transform="matrix(1,0,0,1,154.5,127)" opacity="1" style="display: none;"><path class="primary" fill="rgb(255,199,56)" fill-opacity="1" d=" M130,-98.3936996459961 C110.16010284423828,-100.59996795654297 88.4503173828125,-95.44035339355469 69.25843048095703,-85.07957458496094 C9.975045204162598,-53.37214279174805 -44.73944854736328,-75.87965393066406 -60.98035430908203,-84.89836120605469 C-97.60757446289062,-105.35796356201172 -129.9970245361328,-85.0019760131836 -130,-85 C-130,-85 -130,85 -130,85 C-129.99505615234375,84.99705505371094 -102.50540924072266,64.81074523925781 -60.68929672241211,85.14010620117188 C-43.868125915527344,93.2481689453125 3.895778179168701,117.46305084228516 69.48379516601562,84.76201629638672 C87.42101287841797,75.56298828125 109.69164276123047,67.9013671875 130,69.67227935791016 C130,69.64228057861328 129.93800354003906,69.64228057861328 130,69.67327880859375 C130,69.67327880859375 80,0.5388308167457581 80,0.5388308167457581 C80,0.5388308167457581 130,-98.38670349121094 130,-98.38670349121094 C130,-98.38670349121094 130.031005859375,-98.32369995117188 130,-98.3936996459961z"/><g opacity="1" transform="matrix(1,0,0,1,0,0)"><path stroke-linecap="butt" stroke-linejoin="round" fill-opacity="0" class="primary" stroke="rgb(255,199,56)" stroke-opacity="1" stroke-width="7" d=" M130,-98.3936996459961 C110.16010284423828,-100.59996795654297 88.4503173828125,-95.44035339355469 69.25843048095703,-85.07957458496094 C9.975045204162598,-53.37214279174805 -44.73944854736328,-75.87965393066406 -60.98035430908203,-84.89836120605469 C-97.60757446289062,-105.35796356201172 -129.9970245361328,-85.0019760131836 -130,-85 C-130,-85 -130,85 -130,85 C-129.99505615234375,84.99705505371094 -102.50540924072266,64.81074523925781 -60.68929672241211,85.14010620117188 C-43.868125915527344,93.2481689453125 3.895778179168701,117.46305084228516 69.48379516601562,84.76201629638672 C87.42101287841797,75.56298828125 109.69164276123047,67.9013671875 130,69.67227935791016 C130,69.64228057861328 129.93800354003906,69.64228057861328 130,69.67327880859375 C130,69.67327880859375 80,0.5388308167457581 80,0.5388308167457581 C80,0.5388308167457581 130,-98.38670349121094 130,-98.38670349121094 C130,-98.38670349121094 130.031005859375,-98.32369995117188 130,-98.3936996459961z"/></g></g><g mask="url(#__lottie_element_70_1)" style="mix-blend-mode: multiply; display: none;"><g transform="matrix(1,0,0,1,154.06500244140625,131.20399475097656)" opacity="0.4"><g opacity="1" transform="matrix(1,0,0,1,0,0)"><path class="primary" fill="rgb(255,199,56)" fill-opacity="1" d=" M-139.31500244140625,92.9209976196289 C-132.6479949951172,89.53600311279297 -115.73200225830078,107.9219970703125 -109.06500244140625,105.5790023803711 C-72.39800262451172,92.69100189208984 -35.731998443603516,95.55599975585938 0.9350000023841858,114.1709976196289 C43.257999420166016,135.6580047607422 114.99210357666016,107.54228973388672 157.3151092529297,87.05728912353516 C158.93310546875,86.2742919921875 159.46910095214844,84.23929595947266 158.47210693359375,82.74429321289062 C158.47210693359375,82.74429321289062 89.16200256347656,-2.1719322204589844 89.16200256347656,-2.1719322204589844 C76.36509704589844,-12.333883285522461 47.5584716796875,6.706374168395996 10.695074081420898,9.464360237121582 C-62.729583740234375,15.016433715820312 -69.48487091064453,-34.59085464477539 -108.06500244140625,-5.790999889373779 C-108.06500244140625,-5.790999889373779 -109.31500244140625,-116.2959976196289 -109.31500244140625,-116.2959976196289 C-115.98200225830078,-113.9530029296875 -132.6479949951172,-101.71399688720703 -139.31500244140625,-98.3290023803711 C-139.31500244140625,-98.3290023803711 -139.31500244140625,92.9209976196289 -139.31500244140625,92.9209976196289z"/></g></g></g><g transform="matrix(1,0,0,1,154.5,127)" opacity="1" style="display: block;"><path class="primary" fill="rgb(255,199,56)" fill-opacity="1" d=" M-0.07038310915231705,-84.9945297241211 C-43.26620864868164,-106.92543029785156 -86.43401336669922,-106.98086547851562 -129.5970001220703,-85.2040023803711 C-129.7310028076172,-85.13700866699219 -129.99899291992188,-85.0009994506836 -129.99899291992188,-85.0009994506836 C-129.99899291992188,-85.0009994506836 -130,-85 -130,-85 C-130,-85 -130,85 -130,85 C-129.99899291992188,85 -129.99899291992188,84.9990005493164 -129.9980010986328,84.9990005493164 C-129.78399658203125,84.88999938964844 -129.5699920654297,84.78301239013672 -129.3560028076172,84.67500305175781 C-86.25444030761719,63.006805419921875 -43.1618766784668,63.131370544433594 -0.07038310915231705,85.0054702758789 C41.91590118408203,106.31536102294922 83.88229370117188,106.97174835205078 125.8589096069336,86.99588012695312 C127.23599243164062,86.3404769897461 128.6053924560547,85.66602325439453 130,84.97949981689453 C130,84.97949981689453 80,9.987016677856445 80,9.987016677856445 C80,9.987016677856445 130,-85.01810455322266 130,-85.01810455322266 C128.6448974609375,-84.3515853881836 127.30381774902344,-83.69325256347656 125.96931457519531,-83.05645751953125 C83.9563980102539,-63.02518081665039 41.94242858886719,-63.66410827636719 -0.07038310915231705,-84.9945297241211z"/><g opacity="1" transform="matrix(1,0,0,1,0,0)"><path stroke-linecap="butt" stroke-linejoin="round" fill-opacity="0" class="primary" stroke="rgb(255,199,56)" stroke-opacity="1" stroke-width="7" d=" M-0.07038310915231705,-84.9945297241211 C-43.26620864868164,-106.92543029785156 -86.43401336669922,-106.98086547851562 -129.5970001220703,-85.2040023803711 C-129.7310028076172,-85.13700866699219 -129.99899291992188,-85.0009994506836 -129.99899291992188,-85.0009994506836 C-129.99899291992188,-85.0009994506836 -130,-85 -130,-85 C-130,-85 -130,85 -130,85 C-129.99899291992188,85 -129.99899291992188,84.9990005493164 -129.9980010986328,84.9990005493164 C-129.78399658203125,84.88999938964844 -129.5699920654297,84.78301239013672 -129.3560028076172,84.67500305175781 C-86.25444030761719,63.006805419921875 -43.1618766784668,63.131370544433594 -0.07038310915231705,85.0054702758789 C41.91590118408203,106.31536102294922 83.88229370117188,106.97174835205078 125.8589096069336,86.99588012695312 C127.23599243164062,86.3404769897461 128.6053924560547,85.66602325439453 130,84.97949981689453 C130,84.97949981689453 80,9.987016677856445 80,9.987016677856445 C80,9.987016677856445 130,-85.01810455322266 130,-85.01810455322266 C128.6448974609375,-84.3515853881836 127.30381774902344,-83.69325256347656 125.96931457519531,-83.05645751953125 C83.9563980102539,-63.02518081665039 41.94242858886719,-63.66410827636719 -0.07038310915231705,-84.9945297241211z"/></g></g><g mask="url(#__lottie_element_132_1)" style="mix-blend-mode: multiply; display: block;"><g transform="matrix(1,0,0,1,154.06500244140625,131.20399475097656)" opacity="0.4"><g opacity="1" transform="matrix(1,0,0,1,0,0)"><path class="primary" fill="rgb(255,199,56)" fill-opacity="1" d=" M-139.31500244140625,92.9209976196289 C-132.6479949951172,89.53600311279297 -115.73200225830078,107.9219970703125 -109.06500244140625,105.5790023803711 C-72.39800262451172,92.69100189208984 -35.731998443603516,95.55599975585938 0.9350000023841858,114.1709976196289 C43.257999420166016,135.6580047607422 102.59942626953125,112.40216827392578 144.92242431640625,91.91716766357422 C146.54042053222656,91.13416290283203 147.07643127441406,89.09916687011719 146.0794219970703,87.60416412353516 C146.0794219970703,87.60416412353516 87.43439483642578,5.288091659545898 87.43439483642578,5.288091659545898 C60.78775405883789,8.39315414428711 27.379472732543945,3.9678704738616943 0.6990082859992981,-9.547863006591797 C-36.01770782470703,-28.130037307739258 -72.64310455322266,-31.05967140197754 -109.31329345703125,-18.14908790588379 C-109.31329345703125,-18.14908790588379 -109.31500244140625,-116.2959976196289 -109.31500244140625,-116.2959976196289 C-115.98200225830078,-113.9530029296875 -132.6479949951172,-101.71399688720703 -139.31500244140625,-98.3290023803711 C-139.31500244140625,-98.3290023803711 -139.31500244140625,92.9209976196289 -139.31500244140625,92.9209976196289z"/></g></g></g></g><g clip-path="url(#__lottie_element_136)" transform="matrix(1,0,0,1,75.41299438476562,12.934005737304688)" opacity="1" style="display: block;"><g transform="matrix(1,0,0,1,154.5,127)" opacity="1" style="display: none;"><path class="primary" fill="rgb(255,199,56)" fill-opacity="1" d=" M130,-97.91395568847656 C111.1543960571289,-99.8456039428711 90.96126556396484,-94.80720520019531 72.63651275634766,-85.0738296508789 C13.44245433807373,-53.693058013916016 -40.58504104614258,-75.44161987304688 -57.595829010009766,-84.89340209960938 C-96.01908874511719,-106.3563461303711 -129.99684143066406,-85.00199890136719 -130,-85 C-130,-85 -130,85 -130,85 C-129.99484252929688,84.99691772460938 -101.15715789794922,63.82070541381836 -57.29043960571289,85.14698791503906 C-39.671363830566406,93.64683532714844 7.655794143676758,117.19241333007812 72.87004089355469,84.7728500366211 C90.07110595703125,76.09906005859375 110.92024230957031,68.6543960571289 130,70.17384338378906 C130,70.14384460449219 129.93800354003906,70.14384460449219 130,70.17484283447266 C130,70.17484283447266 79.99983978271484,1.1363595724105835 79.99983978271484,1.1363595724105835 C79.99983978271484,1.1363595724105835 130,-97.9069595336914 130,-97.9069595336914 C130,-97.9069595336914 130.031005859375,-97.84395599365234 130,-97.91395568847656z"/><g opacity="1" transform="matrix(1,0,0,1,0,0)"><path stroke-linecap="butt" stroke-linejoin="round" fill-opacity="0" class="primary" stroke="rgb(255,199,56)" stroke-opacity="1" stroke-width="7" d=" M130,-97.91395568847656 C111.1543960571289,-99.8456039428711 90.96126556396484,-94.80720520019531 72.63651275634766,-85.0738296508789 C13.44245433807373,-53.693058013916016 -40.58504104614258,-75.44161987304688 -57.595829010009766,-84.89340209960938 C-96.01908874511719,-106.3563461303711 -129.99684143066406,-85.00199890136719 -130,-85 C-130,-85 -130,85 -130,85 C-129.99484252929688,84.99691772460938 -101.15715789794922,63.82070541381836 -57.29043960571289,85.14698791503906 C-39.671363830566406,93.64683532714844 7.655794143676758,117.19241333007812 72.87004089355469,84.7728500366211 C90.07110595703125,76.09906005859375 110.92024230957031,68.6543960571289 130,70.17384338378906 C130,70.14384460449219 129.93800354003906,70.14384460449219 130,70.17484283447266 C130,70.17484283447266 79.99983978271484,1.1363595724105835 79.99983978271484,1.1363595724105835 C79.99983978271484,1.1363595724105835 130,-97.9069595336914 130,-97.9069595336914 C130,-97.9069595336914 130.031005859375,-97.84395599365234 130,-97.91395568847656z"/></g></g><g mask="url(#__lottie_element_145_1)" style="mix-blend-mode: multiply; display: none;"><g transform="matrix(1,0,0,1,154.06500244140625,131.20399475097656)" opacity="0.4"><g opacity="1" transform="matrix(1,0,0,1,0,0)"><path class="primary" fill="rgb(255,199,56)" fill-opacity="1" d=" M-139.31500244140625,92.9209976196289 C-132.6479949951172,89.53600311279297 -115.73200225830078,107.9219970703125 -109.06500244140625,105.5790023803711 C-72.39800262451172,92.69100189208984 -35.731998443603516,95.55599975585938 0.9350000023841858,114.1709976196289 C43.257999420166016,135.6580047607422 115.33200073242188,107.40899658203125 157.65499877929688,86.92400360107422 C159.2729949951172,86.14099884033203 159.8090057373047,84.10600280761719 158.81199645996094,82.61100006103516 C158.81199645996094,82.61100006103516 89.20244598388672,-1.4816553592681885 89.20244598388672,-1.4816553592681885 C75.78520965576172,-11.97445011138916 47.512367248535156,7.147654056549072 10.9350004196167,9.550999641418457 C-60.75755310058594,14.266233444213867 -69.06500244140625,-35.20399856567383 -108.06500244140625,-5.790999889373779 C-108.06500244140625,-5.790999889373779 -109.31500244140625,-116.2959976196289 -109.31500244140625,-116.2959976196289 C-115.98200225830078,-113.9530029296875 -132.6479949951172,-101.71399688720703 -139.31500244140625,-98.3290023803711 C-139.31500244140625,-98.3290023803711 -139.31500244140625,92.9209976196289 -139.31500244140625,92.9209976196289z"/></g></g></g><g transform="matrix(1,0,0,1,154.5,127)" opacity="1" style="display: block;"><path class="primary" fill="rgb(255,199,56)" fill-opacity="1" d=" M0,-85 C-43.19900131225586,-106.93199920654297 -86.39800262451172,-107 -129.5970001220703,-85.2040023803711 C-129.7310028076172,-85.13700103759766 -129.99899291992188,-85.0009994506836 -129.99899291992188,-85.0009994506836 C-129.99899291992188,-85.0009994506836 -130,-85 -130,-85 C-130,-85 -130,85 -130,85 C-129.99899291992188,85 -129.99899291992188,84.9990005493164 -129.9980010986328,84.9990005493164 C-129.78399658203125,84.88999938964844 -129.57000732421875,84.78299713134766 -129.3560028076172,84.67500305175781 C-86.23699951171875,63.000999450683594 -43.11899948120117,63.10900115966797 0,85 C41.97600173950195,106.31099700927734 83.9530029296875,106.97799682617188 125.92900085449219,87.00199890136719 C127.28600311279297,86.35600280761719 128.64300537109375,85.68900299072266 130,85 C130,85 80,10 80,10 C80,10 130,-85 130,-85 C128.67999267578125,-84.33000183105469 127.36000061035156,-83.68000030517578 126.03900146484375,-83.05000305175781 C84.0260009765625,-63.02000045776367 42.01300048828125,-63.66999816894531 0,-85z"/><g opacity="1" transform="matrix(1,0,0,1,0,0)"><path stroke-linecap="butt" stroke-linejoin="round" fill-opacity="0" class="primary" stroke="rgb(255,199,56)" stroke-opacity="1" stroke-width="7" d=" M0,-85 C-43.19900131225586,-106.93199920654297 -86.39800262451172,-107 -129.5970001220703,-85.2040023803711 C-129.7310028076172,-85.13700103759766 -129.99899291992188,-85.0009994506836 -129.99899291992188,-85.0009994506836 C-129.99899291992188,-85.0009994506836 -130,-85 -130,-85 C-130,-85 -130,85 -130,85 C-129.99899291992188,85 -129.99899291992188,84.9990005493164 -129.9980010986328,84.9990005493164 C-129.78399658203125,84.88999938964844 -129.57000732421875,84.78299713134766 -129.3560028076172,84.67500305175781 C-86.23699951171875,63.000999450683594 -43.11899948120117,63.10900115966797 0,85 C41.97600173950195,106.31099700927734 83.9530029296875,106.97799682617188 125.92900085449219,87.00199890136719 C127.28600311279297,86.35600280761719 128.64300537109375,85.68900299072266 130,85 C130,85 80,10 80,10 C80,10 130,-85 130,-85 C128.67999267578125,-84.33000183105469 127.36000061035156,-83.68000030517578 126.03900146484375,-83.05000305175781 C84.0260009765625,-63.02000045776367 42.01300048828125,-63.66999816894531 0,-85z"/></g></g><g mask="url(#__lottie_element_163_1)" style="mix-blend-mode: multiply; display: block;"><g transform="matrix(1,0,0,1,154.06500244140625,131.20399475097656)" opacity="0.4"><g opacity="1" transform="matrix(1,0,0,1,0,0)"><path class="primary" fill="rgb(255,199,56)" fill-opacity="1" d=" M-139.31500244140625,92.9209976196289 C-132.6479949951172,89.53600311279297 -115.73200225830078,107.9219970703125 -109.06500244140625,105.5790023803711 C-72.39800262451172,92.69100189208984 -35.731998443603516,95.55599975585938 0.9350000023841858,114.1709976196289 C43.257999420166016,135.6580047607422 102.58200073242188,112.40899658203125 144.90499877929688,91.92400360107422 C146.5229949951172,91.14099884033203 147.0590057373047,89.10600280761719 146.06199645996094,87.61100006103516 C146.06199645996094,87.61100006103516 87.43199920654297,5.297999858856201 87.43199920654297,5.297999858856201 C60.76599884033203,8.420999526977539 27.35099983215332,3.9639999866485596 0.6850000023841858,-9.574000358581543 C-35.981998443603516,-28.18899917602539 -72.64800262451172,-31.054000854492188 -109.31500244140625,-18.166000366210938 C-109.31500244140625,-18.166000366210938 -109.31500244140625,-116.2959976196289 -109.31500244140625,-116.2959976196289 C-115.98200225830078,-113.9530029296875 -132.6479949951172,-101.71399688720703 -139.31500244140625,-98.3290023803711 C-139.31500244140625,-98.3290023803711 -139.31500244140625,92.9209976196289 -139.31500244140625,92.9209976196289z"/></g></g></g></g></g></g></svg>